<svg xmlns="http://www.w3.org/2000/svg" width="74" height="12" viewBox="0 0 74 12" fill="none">
  <g clip-path="url(#clip0_0_3)">
    <path d="M44.0611 7.749C44.9356 7.749 45.6446 6.96964 45.6446 6.00825C45.6446 5.04686 44.9356 4.2675 44.0611 4.2675C43.1865 4.2675 42.4775 5.04686 42.4775 6.00825C42.4775 6.96964 43.1865 7.749 44.0611 7.749Z" fill="#CDDC36"/>
    <path d="M38.5955 5.57324L41.0925 2.82825H39.4026C38.9383 3.65939 38.6615 4.60057 38.5955 5.57324Z" fill="#DAE233"/>
    <path d="M43.6804 0C42.7636 0.0636575 41.8774 0.386592 41.1075 0.9375V2.829L43.6804 0Z" fill="#DAE233"/>
    <path d="M49.5116 5.57323L47.0146 2.82824H48.7045C49.1754 3.65604 49.4527 4.59905 49.5116 5.57323Z" fill="#DAE233"/>
    <path d="M44.4418 -3.8147e-06C45.3585 0.0636873 46.2448 0.386619 47.0146 0.937496V2.829L44.4418 -3.8147e-06Z" fill="#DAE233"/>
    <path d="M41.1078 6.393H38.6107C38.6695 7.3672 38.9468 8.31024 39.4178 9.138H41.1078V6.393Z" fill="#DAE233"/>
    <path d="M47.0303 6.393H49.5273C49.4685 7.36719 49.1912 8.31022 48.7202 9.138H47.0303V6.393Z" fill="#DAE233"/>
    <path d="M43.6805 2.79525L41.1561 5.57025H38.5956L43.6805 -0.00300217V2.79525Z" fill="#46B746"/>
    <path d="M44.4418 11.9827C45.3634 11.9467 46.2586 11.6342 47.0303 11.079V6.393L44.4418 9.2385V11.9827Z" fill="#46B746"/>
    <path d="M43.6653 9.22199L41.1076 6.41025V11.0962C41.8798 11.6367 42.7662 11.948 43.6804 12V9.22499L43.6653 9.22199Z" fill="#46B746"/>
    <path d="M44.4418 2.79525L46.9661 5.57025H49.5239L44.4418 0V2.79525Z" fill="#46B746"/>
    <path d="M8.05196 11.3108C7.96839 11.319 7.8848 11.2953 7.81539 11.2434C7.74598 11.1916 7.69505 11.115 7.67126 11.0265L6.51141 7.56226H1.90343L0.777017 11.0265C0.749708 11.1125 0.697951 11.1866 0.629394 11.2378C0.560837 11.289 0.479119 11.3146 0.396316 11.3108C0.329752 11.3102 0.26436 11.2914 0.205994 11.2563C0.147629 11.2211 0.0981118 11.1705 0.061877 11.1091C0.0256422 11.0478 0.00382084 10.9775 -0.00163333 10.9045C-0.00708749 10.8316 0.00399603 10.7583 0.0306245 10.6913L3.01483 1.63651C3.07674 1.33711 3.22964 1.06985 3.44831 0.878831C3.66698 0.687809 3.93835 0.584433 4.21766 0.585759C4.49649 0.58639 4.76726 0.688611 4.98762 0.876428C5.20798 1.06424 5.36548 1.32706 5.43549 1.62376L8.43744 10.695C8.45329 10.7434 8.4636 10.7938 8.46814 10.845C8.46579 10.9663 8.42141 11.0821 8.34407 11.1686C8.26673 11.2552 8.16224 11.306 8.05196 11.3108V11.3108ZM2.20567 6.67501H6.20986L4.62633 1.80451C4.60819 1.6987 4.55771 1.60289 4.48327 1.53292C4.40882 1.46295 4.31487 1.42302 4.21697 1.41976C4.03504 1.41976 3.89859 1.55377 3.80762 1.82177L2.20567 6.67501Z" fill="#27A365"/>
    <path d="M11.1597 1.60651H8.17416C8.12024 1.60999 8.06625 1.60133 8.01548 1.58105C7.96472 1.56076 7.91827 1.52928 7.87897 1.48854C7.83967 1.44781 7.80836 1.39867 7.78696 1.34415C7.76556 1.28964 7.75452 1.23088 7.75452 1.17151C7.75452 1.11213 7.76556 1.05339 7.78696 0.998874C7.80836 0.944357 7.83967 0.895219 7.87897 0.854484C7.91827 0.813748 7.96472 0.782268 8.01548 0.761981C8.06625 0.741694 8.12024 0.733036 8.17416 0.736518H14.8883C14.9932 0.736518 15.0939 0.782347 15.1681 0.863925C15.2423 0.945503 15.284 1.05614 15.284 1.17151C15.284 1.28688 15.2423 1.39752 15.1681 1.4791C15.0939 1.56068 14.9932 1.60651 14.8883 1.60651H11.9518V10.9118C11.9518 10.9689 11.9416 11.0255 11.9217 11.0782C11.9018 11.131 11.8727 11.179 11.8359 11.2194C11.7992 11.2597 11.7556 11.2918 11.7076 11.3137C11.6596 11.3355 11.6081 11.3468 11.5561 11.3468C11.5042 11.3468 11.4527 11.3355 11.4047 11.3137C11.3567 11.2918 11.3131 11.2597 11.2763 11.2194C11.2396 11.179 11.2104 11.131 11.1905 11.0782C11.1707 11.0255 11.1604 10.9689 11.1604 10.9118L11.1597 1.60651Z" fill="#27A365"/>
    <path d="M23.4909 7.74902C23.4929 8.23631 23.4048 8.71895 23.232 9.16771C23.0593 9.61648 22.8055 10.022 22.4859 10.3598C22.1428 10.7331 21.7329 11.0241 21.2822 11.2143C20.8314 11.4045 20.3497 11.4897 19.8674 11.4645C19.3618 11.476 18.8591 11.3769 18.3886 11.173C17.9181 10.969 17.4892 10.6643 17.1268 10.2765C16.386 9.47818 15.9457 8.40267 15.8933 7.26377C15.8324 6.44513 15.8324 5.6224 15.8933 4.80377C15.946 3.67477 16.3869 2.60996 17.1268 1.82477C17.4871 1.43266 17.9153 1.12397 18.386 0.916952C18.8568 0.709935 19.3605 0.608791 19.8674 0.619508C20.5983 0.597506 21.318 0.819138 21.9321 1.25526C22.5462 1.69139 23.0259 2.3216 23.3081 3.06302C23.3315 3.13154 23.3397 3.20523 23.3319 3.27794C23.3241 3.35064 23.3006 3.42024 23.2633 3.4809C23.2261 3.54156 23.1761 3.59153 23.1176 3.62661C23.0592 3.66168 22.9939 3.68085 22.9274 3.68251C22.8442 3.68859 22.7615 3.66392 22.6925 3.61242C22.6235 3.56091 22.5722 3.48553 22.5467 3.39826C22.3186 2.8283 21.9427 2.3449 21.4661 2.00848C20.9894 1.67206 20.4331 1.49754 19.8667 1.50676C19.4727 1.50024 19.0814 1.57975 18.7156 1.74068C18.3497 1.9016 18.0165 2.14075 17.7354 2.44426C17.142 3.05674 16.7827 3.89436 16.7304 4.78727C16.6543 5.62193 16.6543 6.46286 16.7304 7.29752C16.7837 8.19134 17.1361 9.03183 17.7197 9.65702C18.0038 9.96072 18.3396 10.1999 18.7079 10.3607C19.0762 10.5216 19.4698 10.601 19.8661 10.5945C20.6024 10.6299 21.3243 10.3625 21.891 9.84452C22.1495 9.60198 22.355 9.29845 22.492 8.95655C22.629 8.61464 22.6941 8.24316 22.6824 7.86977V6.69452H20.3989C20.294 6.69452 20.1933 6.64869 20.1191 6.56711C20.0449 6.48553 20.0032 6.37488 20.0032 6.25952C20.0032 6.14415 20.0449 6.0335 20.1191 5.95192C20.1933 5.87034 20.294 5.82451 20.3989 5.82451H22.7281C22.8279 5.81398 22.9285 5.82726 23.0232 5.86342C23.1178 5.89959 23.2042 5.9578 23.2765 6.03407C23.3488 6.11034 23.4053 6.20286 23.4421 6.30533C23.4788 6.40779 23.495 6.51778 23.4895 6.62776L23.4909 7.74902Z" fill="#27A365"/>
    <path d="M26.0194 10.9455C26.0234 11.0134 26.0145 11.0814 25.9932 11.1452C25.9718 11.209 25.9386 11.2672 25.8957 11.3161C25.8527 11.365 25.8009 11.4034 25.7436 11.429C25.6863 11.4546 25.6247 11.4667 25.5629 11.4645C25.5018 11.4638 25.4415 11.4498 25.3853 11.4233C25.3292 11.3968 25.2784 11.3582 25.236 11.3099C25.1935 11.2616 25.1602 11.2046 25.138 11.142C25.1157 11.0795 25.105 11.0127 25.1065 10.9455V10.1258C25.0608 9.45602 26.0507 9.45602 26.02 10.1258L26.0194 10.9455Z" fill="#27A365"/>
    <path d="M26.4308 1.22177C26.4109 1.15475 26.4061 1.08343 26.4169 1.01395C26.4277 0.944457 26.4537 0.878883 26.4926 0.822874C26.5315 0.766866 26.5823 0.722098 26.6404 0.692423C26.6986 0.662748 26.7624 0.64906 26.8265 0.652529C26.8726 0.647274 26.9193 0.652276 26.9636 0.667246C27.008 0.682217 27.0492 0.706845 27.0847 0.739664C27.1202 0.772484 27.1493 0.812823 27.1704 0.858283C27.1914 0.903742 27.2039 0.953391 27.2072 1.00427L29.1407 10.5443C29.1407 10.6613 29.2471 10.6283 29.2772 10.5443L31.4693 1.44002C31.4996 1.22326 31.602 1.02658 31.7566 0.888037C31.9113 0.749491 32.1071 0.678931 32.3064 0.69002C32.505 0.682075 32.6994 0.753787 32.8534 0.891779C33.0074 1.02977 33.1105 1.22463 33.1435 1.44002L35.2899 10.5615C35.3206 10.6455 35.4264 10.6785 35.4264 10.5615L37.3906 1.03652C37.3989 0.928781 37.4447 0.828711 37.5184 0.757071C37.5921 0.685431 37.688 0.647722 37.7863 0.651774C37.8509 0.644382 37.9162 0.655696 37.9756 0.684596C38.035 0.713495 38.0865 0.758969 38.125 0.816512C38.1635 0.874054 38.1876 0.94167 38.195 1.01263C38.2023 1.08359 38.1927 1.15543 38.167 1.22103L36.1885 10.7273C36.1459 10.932 36.0414 11.1148 35.8921 11.2457C35.7427 11.3767 35.5574 11.448 35.3663 11.448C35.1753 11.448 34.9899 11.3767 34.8406 11.2457C34.6912 11.1148 34.5867 10.932 34.5442 10.7273L32.3521 1.60578C32.3521 1.58589 32.3449 1.56681 32.3321 1.55274C32.3193 1.53868 32.302 1.53077 32.2839 1.53077C32.2658 1.53077 32.2484 1.53868 32.2356 1.55274C32.2228 1.56681 32.2157 1.58589 32.2157 1.60578L29.9929 10.7273C29.9503 10.932 29.8458 11.1148 29.6965 11.2457C29.5471 11.3767 29.3618 11.448 29.1707 11.448C28.9797 11.448 28.7943 11.3767 28.645 11.2457C28.4956 11.1148 28.3911 10.932 28.3486 10.7273L26.4308 1.22177Z" fill="#5C5D5D"/>
    <path d="M57.3065 11.3805C57.2457 11.3776 57.186 11.3613 57.131 11.3326C57.0761 11.3039 57.0269 11.2633 56.9865 11.2133L54.2765 7.48126C54.1982 7.33164 54.085 7.20775 53.9484 7.12243C53.8119 7.03711 53.6571 6.99346 53.5001 6.99601H51.5816V10.929C51.5774 11.0443 51.5347 11.1539 51.4618 11.2369C51.3888 11.3199 51.2906 11.3704 51.1859 11.379C51.0803 11.3731 50.9807 11.3234 50.9073 11.2398C50.8338 11.1563 50.792 11.0452 50.7902 10.929V1.6065C50.7856 1.49086 50.803 1.37544 50.8412 1.26758C50.8794 1.15971 50.9376 1.06176 51.0121 0.979939C51.0866 0.898123 51.1758 0.834232 51.2739 0.792325C51.3721 0.750418 51.4771 0.731412 51.5823 0.736512H54.3687C55.1658 0.693317 55.9468 0.993592 56.5458 1.57351C56.8297 1.87164 57.0515 2.23382 57.1961 2.63517C57.3406 3.03652 57.4043 3.4675 57.3829 3.8985C57.3829 5.65575 56.4386 6.6435 54.8585 6.8775L57.6292 10.6598C57.6839 10.7419 57.7109 10.8424 57.7056 10.944C57.7074 11.0021 57.6983 11.0599 57.6789 11.1139C57.6595 11.1679 57.6301 11.217 57.5926 11.2579C57.5552 11.2989 57.5104 11.3309 57.4612 11.352C57.4119 11.3731 57.3593 11.3828 57.3065 11.3805V11.3805ZM51.5973 6.10876H54.1551C55.7844 6.10876 56.5908 5.37225 56.5908 3.86625C56.5908 2.47725 55.8144 1.6065 54.353 1.6065H51.5973V6.10876Z" fill="#5C5D5D"/>
    <path d="M59.0271 1.12125C59.0271 1.00588 59.0688 0.895246 59.143 0.813667C59.2172 0.732089 59.3179 0.68626 59.4228 0.68626C59.5278 0.68626 59.6284 0.732089 59.7027 0.813667C59.7769 0.895246 59.8185 1.00588 59.8185 1.12125V10.41H64.6298C64.7367 10.4157 64.8379 10.4649 64.9136 10.5481C64.9893 10.6313 65.0341 10.7425 65.0392 10.86C65.0338 10.976 64.9886 11.0855 64.9126 11.1663C64.8366 11.2471 64.7355 11.2931 64.6298 11.295H59.8342C59.727 11.3 59.6201 11.2805 59.5201 11.2376C59.4201 11.1948 59.3293 11.1296 59.2534 11.0462C59.1776 10.9628 59.1183 10.863 59.0793 10.7531C59.0404 10.6432 59.0226 10.5256 59.0271 10.4078V1.12125Z" fill="#5C5D5D"/>
    <path d="M67.3856 11.313C67.2828 11.3193 67.1799 11.3014 67.084 11.2605C66.988 11.2196 66.901 11.1567 66.8289 11.0759C66.7569 10.9951 66.7013 10.8983 66.666 10.792C66.6307 10.6857 66.6164 10.5723 66.6242 10.4595V1.57274C66.6164 1.4599 66.6307 1.34654 66.666 1.24025C66.7013 1.13395 66.7569 1.03717 66.8289 0.956375C66.901 0.875579 66.988 0.81263 67.084 0.771736C67.1799 0.730842 67.2828 0.712943 67.3856 0.719242H69.7625C70.3208 0.678499 70.8805 0.76773 71.4052 0.981105C71.9299 1.19448 72.4078 1.5272 72.8075 1.95749C73.5578 2.83773 73.9767 3.99794 73.9796 5.20424C74.01 5.75598 74.01 6.30924 73.9796 6.86099C73.9629 8.06383 73.5389 9.21664 72.7904 10.0942C72.389 10.5161 71.9128 10.8424 71.3914 11.0526C70.8701 11.2629 70.3148 11.3525 69.7605 11.316H67.3856V11.313ZM73.1848 5.17049C73.0633 2.92799 71.9512 1.60575 69.7441 1.60575H67.4299V10.4092H69.7441C71.9519 10.4092 73.0783 9.0705 73.1848 6.8445C73.2157 6.28728 73.2162 5.72852 73.1861 5.17125L73.1848 5.17049Z" fill="#5C5D5D"/>
    <path d="M41.1048 11.1V6.41025L43.6592 9.225H43.6742V12C42.7614 11.9491 41.8762 11.639 41.1048 11.1V11.1ZM44.4343 9.24225L47.0187 6.39675V11.0828C46.2484 11.6378 45.3547 11.9503 44.4343 11.9865V9.24225ZM47.0187 9.14175V6.393H49.5123C49.4536 7.36699 49.1768 8.30993 48.7066 9.138L47.0187 9.14175ZM39.4169 9.14175C38.9462 8.31258 38.6694 7.36828 38.6112 6.393H41.1048V9.138L39.4169 9.14175ZM42.4735 6.00825C42.474 5.66468 42.5672 5.329 42.7412 5.04363C42.9152 4.75825 43.1623 4.53599 43.4512 4.40492C43.7401 4.27385 44.0579 4.23987 44.3643 4.30726C44.6708 4.37465 44.9522 4.54039 45.173 4.78354C45.3938 5.02668 45.5441 5.33633 45.6049 5.67333C45.6657 6.01034 45.6342 6.35959 45.5145 6.67695C45.3947 6.99431 45.1921 7.26553 44.9322 7.45634C44.6723 7.64716 44.3668 7.749 44.0543 7.749C43.8465 7.7488 43.6408 7.70362 43.4489 7.61603C43.257 7.52845 43.0827 7.40017 42.9359 7.23852C42.7891 7.07688 42.6727 6.88504 42.5934 6.67395C42.514 6.46286 42.4733 6.23665 42.4735 6.00825V6.00825ZM46.9586 5.57325L44.4343 2.79825V0C45.35 0.0635878 46.2351 0.386555 47.0037 0.9375V2.82L47.0112 2.82825H48.6936C49.1608 3.65116 49.437 4.58757 49.498 5.55525L49.5123 5.57325H46.9586ZM38.5962 5.57325L38.6146 5.55C38.6832 4.5856 38.9589 3.65283 39.419 2.82825H41.0973L41.1048 2.82V0.9375C41.8734 0.386555 42.7585 0.0635878 43.6742 0V2.79525L41.1499 5.57025L38.5962 5.57325Z" fill="url(#paint0_linear_0_3)"/>
  </g>
  <defs>
    <linearGradient id="paint0_linear_0_3" x1="38.5962" y1="5.232" x2="44.6377" y2="11.4314" gradientUnits="userSpaceOnUse">
      <stop stop-color="#00A854"/>
      <stop offset="1" stop-color="#004D25"/>
    </linearGradient>
    <clipPath id="clip0_0_3">
      <rect width="74" height="12" fill="white"/>
    </clipPath>
  </defs>
</svg>